Coordinates
version=1
nRows=5
nColumns=40
inDegrees=yes

Units are S.I. units (second, meters, Newtons, ...)
If the header above contains a line with 'inDegrees', this indicates whether rotational values are in degrees (yes) or radians (no).

endheader
time	pelvis_tilt	pelvis_list	pelvis_rotation	pelvis_tx	pelvis_ty	pelvis_tz	hip_flexion_r	hip_adduction_r	hip_rotation_r	knee_angle_r	knee_angle_r_beta	ankle_angle_r	subtalar_angle_r	mtp_angle_r	hip_flexion_l	hip_adduction_l	hip_rotation_l	knee_angle_l	knee_angle_l_beta	ankle_angle_l	subtalar_angle_l	mtp_angle_l	lumbar_extension	lumbar_bending	lumbar_rotation	arm_flex_r	arm_add_r	arm_rot_r	elbow_flex_r	pro_sup_r	wrist_flex_r	wrist_dev_r	arm_flex_l	arm_add_l	arm_rot_l	elbow_flex_l	pro_sup_l	wrist_flex_l	wrist_dev_l
      0.96000000	     88.46568562	     79.57279337	    -84.85356322	      1.40341061	      0.38155081	      0.97309890	     10.48935372	     -2.23402269	     -5.86405122	     33.98017913	      0.59306601	     -4.80865258	      0.00000000	      0.00000000	    -19.95373633	      2.24251075	      4.56603233	      2.69164908	      0.04697814	     -7.46701849	      0.00000000	      0.00000000	    -22.70653508	      2.31046452	     -7.56005970	     -0.52399978	    -17.46307506	     11.15503816	     41.27943859	     78.20631413	      0.00000000	      0.00000000	      7.17886541	    -23.59140353	     26.25266167	     47.69910011	     77.35439198	      0.00000000	      0.00000000
      0.96400000	     88.48237041	     79.31488513	    -84.77869958	      1.40931243	      0.38180027	      0.97296748	     10.24213660	     -2.19089802	     -6.34045416	     32.53149654	      0.56778173	     -5.54924142	      0.00000000	      0.00000000	    -20.88633499	      2.19578399	      4.50342578	      2.17436200	      0.03794978	     -7.67930778	      0.00000000	      0.00000000	    -22.90836482	      2.39434976	     -7.70793083	     -0.63718992	    -17.50380549	     11.04988392	     41.29737992	     78.20111784	      0.00000000	      0.00000000	      7.28147503	    -23.64629041	     26.30489909	     47.77211203	     77.47457067	      0.00000000	      0.00000000
      0.96800000	     88.54216998	     79.50372823	    -84.84576651	      1.41447291	      0.38186399	      0.97193778	     10.81140888	     -2.20498525	     -6.52106516	     31.73744936	      0.55392299	     -5.72769448	      0.00000000	      0.00000000	    -21.13396029	      2.23920959	      4.29542975	      1.99439452	      0.03480875	     -7.53434230	      0.00000000	      0.00000000	    -22.71650017	      2.40492238	     -7.78265545	     -0.69746245	    -17.56684727	     11.07499728	     41.34050768	     78.19247719	      0.00000000	      0.00000000	      7.42121844	    -23.69607292	     26.33220269	     47.86028737	     77.48945854	      0.00000000	      0.00000000
      0.97200000	     88.58719060	     79.62263871	    -84.91759728	      1.41971728	      0.38196885	      0.97105619	     11.25034567	     -2.19320467	     -6.80211156	     30.79329450	      0.53744438	     -6.04509699	      0.00000000	      0.00000000	    -21.45352614	      2.27609843	      4.11553722	      1.83096806	      0.03195642	     -7.39000285	      0.00000000	      0.00000000	    -22.59891643	      2.41902175	     -7.87811804	     -0.73909471	    -17.60327370	     11.05078622	     41.39227779	     78.16793631	      0.00000000	      0.00000000	      7.53312524	    -23.78204714	     26.38157240	     47.97121687	     77.51065173	      0.00000000	      0.00000000
      0.97600000	     88.59539359	     79.69572051	    -84.96900145	      1.42427582	      0.38200082	      0.97005169	     11.83224670	     -2.19441365	     -7.12099180	     30.21318633	      0.52731958	     -6.09995650	      0.00000000	      0.00000000	    -21.75049511	      2.31405591	      3.91877695	      1.71258235	      0.02989020	     -7.27977625	      0.00000000	      0.00000000	    -22.62735574	      2.43782734	     -7.93172199	     -0.64180204	    -17.62561983	     11.02097914	     41.41958468	     78.15853416	      0.00000000	      0.00000000	      7.78424045	    -23.85213711	     26.36461558	     48.11789826	     77.50980848	      0.00000000	      0.00000000
